<svg width="80" height="80" viewBox="0 0 80 80" fill="none" xmlns="http://www.w3.org/2000/svg">
<path d="M66.4043 0.652899C65.5334 -0.217633 64.1219 -0.217633 63.2507 0.652899L0.653066 63.2507C-0.217689 64.1215 -0.217689 65.5334 0.653066 66.4044C9.71784 75.4692 21.6212 80 33.5284 80C45.4326 80 57.3405 75.4672 66.4032 66.4046C84.531 48.2764 84.5317 18.7802 66.4043 0.652899ZM57.6778 12.5329C62.3828 17.9369 64.9688 24.5584 65.4357 31.2988H38.9121L57.6778 12.5329ZM65.4357 35.7585C64.9688 42.4991 62.3828 49.1204 57.6778 54.5242L38.9121 35.7585H65.4357ZM35.7584 38.9117L54.5251 57.6781C49.2604 62.2691 42.7274 64.9751 35.7584 65.4516V38.9117ZM31.2987 38.9119V65.4518C24.3298 64.9751 17.797 62.2691 12.5324 57.6783L31.2987 38.9119ZM63.2493 63.2509C55.3106 71.1899 44.7552 75.5617 33.5279 75.5617C23.0467 75.5617 13.1518 71.7518 5.42405 64.7869L9.37221 60.8385C16.0424 66.7543 24.5374 69.9875 33.5286 69.9875C43.2648 69.9875 52.4181 66.1973 59.3036 59.3142C59.3054 59.3124 59.3074 59.3106 59.309 59.309C59.3108 59.3072 59.3125 59.3052 59.3141 59.3037C66.3453 52.2696 69.8969 43.0534 69.969 33.8152C69.9812 33.7215 69.9873 33.6259 69.9873 33.5289C69.9873 33.4316 69.9812 33.3362 69.969 33.2426C69.9023 24.6973 66.859 16.1709 60.838 9.37294L64.7859 5.42477C79.6213 21.9056 79.1096 47.3909 63.2493 63.2509Z" fill="#4CD105"/>
</svg>
